<svg id="Layer_1" data-name="Layer 1" xmlns="http://www.w3.org/2000/svg" viewBox="0 0 48 48"><defs><style>.cls-1{fill:#333;}</style></defs><path class="cls-1" d="M7.92,27a2.61,2.61,0,1,0-2.73,2.79A2.62,2.62,0,0,0,7.92,27Z"/><path class="cls-1" d="M39.14,34.91a21.06,21.06,0,0,1-19-15.18.13.13,0,0,1,.18-.15l.37.19a25.51,25.51,0,0,0,12.64,3.08,16.59,16.59,0,0,0,8.94-2.57.25.25,0,0,0,.12-.22V11.59a.25.25,0,0,0-.43-.18,12.12,12.12,0,0,1-8.63,3.51,17.84,17.84,0,0,1-9.18-2.26,29.42,29.42,0,0,0-4.47-1.91.13.13,0,0,1-.09-.15,25.36,25.36,0,0,1,1.91-6,.25.25,0,0,0-.23-.36h-8a.24.24,0,0,0-.24.17,26.91,26.91,0,0,0-1.28,5.09.11.11,0,0,1-.12.1A17.54,17.54,0,0,0,3,12.14a.27.27,0,0,0-.12.22v8.49a.25.25,0,0,0,.44.17,11.72,11.72,0,0,1,8.23-3.45.14.14,0,0,1,.13.11A28.4,28.4,0,0,0,15.05,27.9a5.35,5.35,0,0,1-5,7.89A8.05,8.05,0,0,1,6,34.5a.25.25,0,0,0-.4.2v7.95a.25.25,0,0,0,.17.24,14.16,14.16,0,0,0,3.74.81,13,13,0,0,0,9.53-3.33,12.14,12.14,0,0,0,3-3.83.13.13,0,0,1,.19,0,29.13,29.13,0,0,0,22.8,6,.26.26,0,0,0,.21-.25V34.7a.25.25,0,0,0-.31-.25A17.57,17.57,0,0,1,39.14,34.91Z"/></svg>